<?xml version="1.0" standalone="no"?><!DOCTYPE svg PUBLIC "-//W3C//DTD SVG 1.1//EN" "http://www.w3.org/Graphics/SVG/1.1/DTD/svg11.dtd"><svg t="1678679504708" class="icon" viewBox="0 0 1024 1024" version="1.1" xmlns="http://www.w3.org/2000/svg" p-id="9553" xmlns:xlink="http://www.w3.org/1999/xlink" width="200" height="200"><path d="M835.9 679.8H187.7c-26.4 0-48-21.6-48-48V203.7c0-26.5 21.5-48 48-48h648.2c26.5 0 48 21.5 48 48v428.1c0 26.4-21.6 48-48 48z" fill="#28B1D5" p-id="9554"></path><path d="M835.9 679.8H187.7c-26.4 0-48-21.6-48-48v-4.3h744.2v4.3c0 26.4-21.6 48-48 48z" fill="#198EBC" p-id="9555"></path><path d="M548.1 679.8h274.8L298.8 155.7H187.7c-26.5 0-48 21.5-48 48v67.7l408.4 408.4zM422.9 155.7l461 461v-77.5L500.3 155.7z" fill="#FFFFFF" p-id="9556"></path><path d="M835.9 689.8H187.7c-32 0-58-26-58-58V203.7c0-32 26-58 58-58h648.2c32 0 58 26 58 58v428.1c0 32-26.1 58-58 58zM187.7 165.7c-21 0-38 17-38 38v428.1c0 21 17 38 38 38h648.2c21 0 38-17 38-38V203.7c0-21-17-38-38-38H187.7z" fill="#322E63" p-id="9557"></path><path d="M884.1 903.5H139.4c-26.4 0-48-21.6-48-48v-17.2c0-6.6 5.4-12 12-12h816.7c6.6 0 12 5.4 12 12v17.2c0 26.4-21.6 48-48 48z" fill="#B9D5EA" p-id="9558"></path><path d="M884.1 913.5H139.4c-32 0-58-26-58-58v-17.2c0-12.1 9.9-22 22-22h816.7c12.1 0 22 9.9 22 22v17.2c0 32-26 58-58 58z m-780.7-77.2c-1.1 0-2 0.9-2 2v17.2c0 21 17 38 38 38h744.7c21 0 38-17 38-38v-17.2c0-1.1-0.9-2-2-2H103.4z" fill="#322E63" p-id="9559"></path><path d="M889.1 874H134.4c-30.7 0-49.1-21.5-41.1-46.9l34.8-110.4c6.5-20.6 33.2-36.9 59.6-36.9h648.2c26.4 0 53.1 16.3 59.6 36.9l34.8 110.4c7.9 25.4-10.4 46.9-41.2 46.9z" fill="#FFFFFF" p-id="9560"></path><path d="M889.1 874.9H134.4c-19.6 0-36.2-7.4-45.5-20.2-7.8-10.8-9.6-24.1-5.2-37.6l34.8-105.2c7.8-23.6 38.1-42 69.1-42h648.2c31 0 61.3 18.5 69.1 42l34.8 105.2c4.5 13.5 2.6 26.8-5.2 37.6-9.2 12.8-25.8 20.2-45.4 20.2zM187.7 689.8c-22.1 0-45.1 13-50.1 28.3l-34.8 105.2c-2.4 7.3-1.6 14.1 2.4 19.6 5.5 7.6 16.1 11.9 29.3 11.9h754.7c13.1 0 23.8-4.3 29.3-11.9 4-5.5 4.8-12.3 2.4-19.6L886 718.2c-5.1-15.3-28-28.3-50.1-28.3H187.7z" fill="#322E63" p-id="9561"></path><path d="M672.4 864.9H351.6c-6.6 0-11-5.8-9.8-12.7l7.9-46.6c1.1-6.2 6.9-11.3 13.1-11.3h298.5c6.1 0 12 5.1 13.1 11.3l7.9 46.6c1.1 6.9-3.3 12.7-9.9 12.7z" fill="#B9D5EA" p-id="9562"></path><path d="M672.4 874.9H351.6c-5.9 0-11.5-2.5-15.2-7-3.9-4.7-5.6-11-4.5-17.4l7.9-46.6c1.9-11 11.9-19.6 22.9-19.6h298.5c11 0 21.1 8.6 22.9 19.6l7.9 46.6c1.1 6.4-0.5 12.8-4.5 17.4-3.6 4.5-9.2 7-15.1 7z m-320.8-20h320.7c0.1-0.2 0.1-0.5 0-1.1l-7.9-46.6c-0.3-1.5-2-3-3.2-3H362.8c-1.2 0-3 1.4-3.2 3l-7.9 46.6c-0.2 0.6-0.1 0.9-0.1 1.1z m-0.1 0zM800 745H224c-5.5 0-10-4.5-10-10s4.5-10 10-10h576c5.5 0 10 4.5 10 10s-4.5 10-10 10z" fill="#322E63" p-id="9563"></path></svg>